# xmcd CD database file
#
# Track frame offsets:
#	150
#	24026
#	42688
#	50202
#	67002
#	83304
#	102029
#	127300
#	148546
#	168890
#	183064
#	202992
#	224521
#
# Disc length: 3254 seconds
#
# Revision: 1
# Processed by: cddbd v1.5.2PL0 Copyright (c) Steve Scherf et al.
# Submitted via: CDex 1.50
#
DISCID=b40cb40d
DTITLE=Seide - Passion, Pain and Poetry
DYEAR=2011
DGENRE=Jazz
TTITLE0=May Wish (I Like)
TTITLE1=Past 3
TTITLE2=Past 2
TTITLE3=Under The Cover Of The Night
TTITLE4=Through This Night And Beyond
TTITLE5=I Want - Je Veux
TTITLE6=Kleiner Blauer Vogel
TTITLE7=Sleep Well
TTITLE8=Februarnacht
TTITLE9=Ronja's Lament
TTITLE10=Get The Gone
TTITLE11=Past 1
TTITLE12=Send In The Clowns
EXTD=YEAR: 2011
EXTT0=
EXTT1=
EXTT2=
EXTT3=
EXTT4=
EXTT5=
EXTT6=
EXTT7=
EXTT8=
EXTT9=
EXTT10=
EXTT11=
EXTT12=
PLAYORDER=
